<svg id="Layer_3" data-name="Layer 3" xmlns="http://www.w3.org/2000/svg" viewBox="0 0 50.99 35.43"><defs><style>.cls-1{fill:#414040;}.cls-2{fill:#fefefe;}</style></defs><title>Device Nodes_140507</title><path class="cls-1" d="M11.59,30.62L2,30.6A10,10,0,0,0,10,34.68h2.32V30.62H11.59Z"/><path class="cls-1" d="M12.32,29.66V28.94L1,28.92c0.12,0.26.25,0.51,0.4,0.76l10.2,0h0.75Z"/><path class="cls-1" d="M10.33,22.83a7.66,7.66,0,0,0,2-4.72,1.34,1.34,0,0,1,1.41-1.46,1.21,1.21,0,0,1,1.4,1.18,9.81,9.81,0,0,0,.51,2.29,9.16,9.16,0,0,0,4.83,5.2,11,11,0,0,0,6.81,1.07,10.85,10.85,0,0,0,6.4-3.26A8.09,8.09,0,0,0,36,17.93a1.43,1.43,0,0,1,1.43-1.28,1.33,1.33,0,0,1,1.38,1.19,8.37,8.37,0,0,0,2.57,5.5,10.58,10.58,0,0,0,5.45,2.9c0.23,0,1.81.08,4,.12A10,10,0,0,0,44,15.07,12,12,0,0,0,21.25,7.38,8.51,8.51,0,0,0,6.58,15.22,10,10,0,0,0,.17,26.47c1.91,0,3.28,0,3.43-.06A10.87,10.87,0,0,0,10.33,22.83Z"/><polygon class="cls-1" points="15.16 30.66 15.16 34.68 36.03 34.68 36.05 30.66 15.16 30.66"/><path class="cls-1" d="M38.87,29.66H49.63c0.13-.23.26-0.47,0.37-0.72H38.87v0.72Z"/><path class="cls-1" d="M38.88,30.62v4.06H41a10,10,0,0,0,8-4.06H38.88Z"/><path class="cls-1" d="M15.16,29.63H36V29H15.16v0.65Z"/><polygon class="cls-2" points="12.35 35.4 15.16 35.38 15.16 34.68 12.35 34.68 12.35 35.4"/><polygon class="cls-2" points="36.03 35.43 38.88 35.38 38.88 34.68 36.03 34.68 36.03 35.43"/><path class="cls-2" d="M46.87,26.24a10.58,10.58,0,0,1-5.45-2.9,8.37,8.37,0,0,1-2.57-5.5,1.33,1.33,0,0,0-1.38-1.19A1.43,1.43,0,0,0,36,17.93a8.09,8.09,0,0,1-2.33,5.21,10.85,10.85,0,0,1-6.4,3.26,11,11,0,0,1-6.81-1.07,9.16,9.16,0,0,1-4.83-5.2,9.81,9.81,0,0,1-.51-2.29,1.21,1.21,0,0,0-1.4-1.18,1.34,1.34,0,0,0-1.41,1.46,7.66,7.66,0,0,1-2,4.72A10.87,10.87,0,0,1,3.6,26.41c-0.15,0-1.52,0-3.43.06A10,10,0,0,0,1,28.92l11.35,0v0.72H11.57l-10.2,0A10,10,0,0,0,2,30.6l9.62,0h0.77v4.06h2.8v-4h20.9l0,4h2.85V30.62H49a10,10,0,0,0,.63-1H38.87V28.94H50a9.94,9.94,0,0,0,.82-2.59C48.68,26.33,47.1,26.29,46.87,26.24ZM36,29.63H15.16V29H36v0.65Z"/></svg>