<svg id="Layer_3" data-name="Layer 3" xmlns="http://www.w3.org/2000/svg" viewBox="0 0 21.34 12.6"><defs><style>.cls-1{fill:#fcfcfc;}.cls-2{fill:#414040;}</style></defs><title>Device Nodes_140507</title><rect class="cls-1" x="1.5" y="1.5" width="18.34" height="9.6" rx="2" ry="2"/><path class="cls-2" d="M17.84,12.6H3.5A3.5,3.5,0,0,1,0,9.1V3.5A3.5,3.5,0,0,1,3.5,0H17.84a3.5,3.5,0,0,1,3.5,3.5V9.1A3.5,3.5,0,0,1,17.84,12.6ZM3.5,3a0.51,0.51,0,0,0-.5.5V9.1a0.51,0.51,0,0,0,.5.5H17.84a0.51,0.51,0,0,0,.5-0.5V3.5a0.51,0.51,0,0,0-.5-0.5H3.5Z"/></svg>